<svg width="116" height="98" viewBox="0 0 116 98" fill="none" xmlns="http://www.w3.org/2000/svg">
<g clip-path="url(#clip0_7_269)">
<path fill-rule="evenodd" clip-rule="evenodd" d="M112.85 91.9095H3.15001C1.47501 91.9095 0.100006 93.288 0.100006 94.9673C0.100006 96.6465 1.45001 98 3.15001 98H112.875C114.55 98 115.925 96.6215 115.925 94.9422C115.925 93.2629 114.55 91.9095 112.85 91.9095Z" fill="#1D3892"/>
<path fill-rule="evenodd" clip-rule="evenodd" d="M9.25 79.6783C7.575 79.6783 6.2 81.0568 6.2 82.7361C6.2 84.4153 7.575 85.7939 9.25 85.7939H106.75C108.425 85.7939 109.8 84.4153 109.8 82.7361C109.8 81.0568 108.425 79.6783 106.75 79.6783H97.6V43.3105H106.75C108.05 43.3105 109.225 42.4834 109.625 41.2302C110.05 39.977 109.625 38.6235 108.575 37.8215L59.825 0.852175C58.725 0.0250645 57.25 0.0250645 56.15 0.852175L7.4 37.8215C6.35 38.6235 5.925 39.977 6.35 41.2302C6.775 42.4834 7.925 43.3105 9.225 43.3105H18.375V79.6783H9.25ZM48.85 79.6783V43.3105H67.125V79.6783H48.85ZM91.525 79.6783H73.25V43.3105H91.525V79.6783ZM58 7.11816L97.675 37.1949H18.325L58 7.11816ZM24.475 43.3105H42.75V79.6783H24.475V43.3105Z" fill="#1D3892"/>
</g>
<defs>
<clipPath id="clip0_7_269">
<rect width="116" height="98" fill="white"/>
</clipPath>
</defs>
</svg>
